<svg xmlns="http://www.w3.org/2000/svg" xmlns:xlink="http://www.w3.org/1999/xlink" width="236" height="27" viewBox="0 0 236 27">
  <defs>
    <polygon id="brandsafway_footer-logo-a" points="135.675 13.632 135.675 26.98 .097 26.98 .097 .283 135.675 .283 135.675 13.632"/>
  </defs>
  <g fill="none" fill-rule="evenodd">
    <g transform="translate(100)">
      <mask id="brandsafway_footer-logo-b" fill="#fff">
        <use xlink:href="#brandsafway_footer-logo-a"/>
      </mask>
      <polyline fill="#F1AF2A" points="4.8 24.734 11.76 12.683 4.629 .283 1.258 .283 8.378 12.664 .097 27 135.675 27 135.675 24.734 4.8 24.734" mask="url(#brandsafway_footer-logo-b)"/>
    </g>
    <path fill="#70171C" d="M13.1017906 18.179905C12.8206033 18.2854233 12.6534289 18.3121327 11.7727543 18.3121327L4.06434356 18.3121327 4.06434356 15.0743672 11.6667657 15.0743672C12.6270154 15.0743672 12.7975332 15.1010765 13.0586596 15.2062652 13.5434653 15.4209291 13.809607 15.9577539 13.809607 16.7191349 13.809607 17.4561148 13.5518241 17.9886529 13.1017906 18.179905zM4.06434356 8.68786733L11.2036927 8.68786733C12.0061297 8.68786733 12.2415113 8.71094947 12.5303886 8.81943555 13.0232187 9.03739695 13.3040716 9.56993502 13.3040716 10.2808651 13.3040716 10.8753952 13.095438 11.359131 12.7320009 11.6080884 12.4347648 11.7755989 12.1164648 11.8230821 11.3090126 11.8230821L4.06434356 11.8230821 4.06434356 8.68786733zM15.5127796 13.3610125L15.2827476 13.3082533 15.5127796 13.2545049C16.8214206 12.9511396 17.4309384 11.7943943 17.4309384 9.61412084 17.4309384 7.47506546 16.974218 6.3143633 15.8538153 5.60739017 15.1152389 5.17047813 14.2131659 5 12.6373802 5L0 5 0 22 13.2271714 22C14.8250241 22 15.7448176 21.8315003 16.4024816 21.4186597 17.4924586 20.7179517 18 19.3874309 18 17.232218 18 14.7650664 17.372093 13.7880322 15.5127796 13.3610125zM46.1508909 15.4911648L46.1821686 15.4149937 49.05908 8.47749006 49.1067863 8.5922413 52.0083407 15.4911648 46.1508909 15.4911648zM46.4232276 5L39 22 43.4663844 22 44.7415013 18.9478809 53.3760268 18.9478809 53.389928 18.9798662 54.6909516 22 59 22 51.7745482 5 46.4232276 5z"/>
    <polyline fill="#70171C" points="76.201 18.137 76.098 17.98 67.669 5 61 5 61 22 64.967 22 64.861 8.99 73.268 22 80 22 80 5 76.096 5 76.201 18.137"/>
    <path fill="#70171C" d="M96.3764866 17.821802C95.8542304 18.0305305 95.7577302 18.0305305 94.5786612 18.0305305L87.237173 18.0305305 87.237173 9.14951023 94.6639484 9.14951023C97.1946993 9.14951023 97.7407407 9.92902725 97.7407407 13.538745 97.7407407 16.5090874 97.4478423 17.4297352 96.3764866 17.821802zM101.914373 10.7197556C101.763507 8.53156823 101.447842 7.48429832 100.663269 6.57156435 99.6941896 5.41119193 98.2867822 5 95.285423 5L83 5 83 22 95.8640843 22C97.3975535 22 98.0346585 21.9452623 98.8280666 21.7451072 100.366972 21.3916206 101.554876 19.8029095 101.785933 17.7901464 101.911995 16.8355349 102 15.0766754 102 13.5130249 102 12.6810785 101.956847 11.5104839 101.914373 10.7197556zM32.0798604 12.0294461C31.2427509 12.1904158 30.4101856 12.2807963 29.6058594 12.2986085 28.8369131 12.3154311 28.0605014 12.320379 27.2899322 12.320379 26.7540393 12.320379 26.2210677 12.3177401 25.695237 12.3154311 25.201865 12.313452 23.8360035 12.3124624 23.8360035 12.3124624L23.8360035 8.24006165 23.8895603 8.24006165C24.5195834 8.24006165 25.1473344 8.23874223 25.7728132 8.23709295 27.4768942 8.23247497 29.2387517 8.2285167 30.9642554 8.25787387 31.4913844 8.26677998 32.0340936 8.40663888 32.5200002 8.64215598 33.1188629 8.93275902 33.5700386 9.63766105 33.5012262 10.3560872 33.4139124 11.2625312 32.8958717 11.8727645 32.0798604 12.0294461zM33.0143459 15.2422424L33.0948435 15.2224511C33.1574887 15.2069479 33.2139669 15.192764 33.2662253 15.17924 33.363926 15.1548306 33.4473448 15.1337198 33.532062 15.1155778 34.9284346 14.8140895 35.9771747 14.0745526 36.6487449 12.9170883 37.4066552 11.6118485 37.3560197 10.2119401 37.1882083 8.89350617 36.9954037 7.37418995 36.2095789 6.32359895 34.785941 5.68334867 33.9108548 5.28917088 32.9130748 5.08927822 31.7367721 5.07179585 29.0842483 5.03287286 26.386607 5.02363689 23.7779024 5.01473079 22.6431468 5.01077251 21.5083912 5.00648439 20.3733109 5.00021713 20.2629514 4.99922756 20.0886483 5.00186641 20.0023082 5.00318583 20.0010098 5.09026778 19.9984131 5.26476155 20.0013344 5.36965572 20.0078261 5.59593686 20.007177 5.8251867 20.0068524 6.04684986L20.0019836 21.4029608C20.0019836 21.6305614 20.0081507 21.8802623 20.0107474 21.9868058L23.8032202 21.9927432C23.8054923 21.8796026 23.8103611 21.6127492 23.8090628 21.464314 23.7951056 20.1458801 23.7964039 18.8053457 23.7977022 17.5090121 23.7980268 17.0214851 23.798676 16.5336282 23.7983514 16.0461012L23.7980268 15.726141 23.7983514 15.4619265 28.4649366 15.467534C28.4649366 15.467534 30.3173538 18.0222679 31.0781854 19.0395434 31.7137264 19.8892522 32.3495921 20.7399505 32.9805889 21.592628 33.0695257 21.7133552 33.2175373 21.922154 33.2665499 21.9904342L38 22C37.4654055 21.2716782 33.7699841 16.2347788 33.0649815 15.3085435L33.0143459 15.2422424z"/>
    <path fill="#070808" d="M118 15.3726097L122.377266 15.3726097C122.397679 17.1397239 123.007353 17.2785363 124.269567 17.2785363L129.631429 17.2785363C130.559208 17.2785363 131.504678 17.164581 131.504678 15.876531 131.504678 14.4296538 130.992988 14.3395872 125.353507 14.3395872 118.769917 14.3395872 118.019733 13.4201971 118.019733 9.32942785 118.019733 6.31978124 118.257886 4 123.775909 4L129.888975 4C134.934772 4 135.408018 5.99889862 135.408018 8.91783293L135.408018 9.44661134 131.032453 9.44661134C131.032453 8.22699911 130.912696 7.72049524 128.902338 7.72049524L124.052507 7.72049524C123.067912 7.72049524 122.397679 8.11401227 122.397679 9.00725395 122.397679 10.4563909 122.927741 10.5022313 127.620731 10.477697 134.422402 10.4563909 136 10.9370692 136 15.7848503 136 20.2636486 134.69866 21 128.882605 21L123.578922 21C119.596651 21 118 20.1258047 118 16.5208788L118 15.3726097M143.340626 14.3309977L148.604996 14.3309977 145.935707 7.94345885 143.340626 14.3309977zM143.265777 4L148.624188 4 156 21 151.422384 21 150.143236 17.9946429 141.803346 17.9946429 140.598087 21 136 21 143.265777 4z"/>
    <polyline fill="#070808" points="158 4 172 4 172 8.085 162.112 8.085 162.112 11.255 171.537 11.255 171.537 15.199 162.112 15.199 162.112 21 158 21 158 4"/>
    <polyline fill="#070808" points="175 4 179.11 4 182.027 16.491 182.065 16.491 185.549 4 189.451 4 192.936 16.491 192.974 16.491 195.892 4 200 4 195.55 21 190.72 21 187.519 9.774 187.481 9.774 184.281 21 179.451 21 175 4"/>
    <path fill="#070808" d="M206.341468,14.3309977 L211.605115,14.3309977 L208.935868,7.94345885 L206.341468,14.3309977 Z M206.267261,4 L211.623667,4 L219,21 L214.423417,21 L213.14397,17.9946429 L204.803893,17.9946429 L203.598653,21 L199,21 L206.267261,4 Z"/>
    <polyline fill="#070808" points="223.441 15.081 216 4 220.973 4 225.499 10.949 230.026 4 235 4 227.56 15.081 227.56 21 223.441 21 223.441 15.081"/>
    <polyline fill="#070808" points="230 18 232 18 232 18.499 231.265 18.499 231.265 21 230.735 21 230.735 18.499 230 18.499 230 18"/>
    <polyline fill="#070808" points="233.718 21 233.243 21 232.541 18.424 232.533 18.432 232.533 21 232 21 232 18 232.934 18 233.489 20.182 233.497 20.182 234.099 18 235 18 235 21 234.467 21 234.467 18.432 234.46 18.424 233.718 21"/>
  </g>
</svg>
