<svg xmlns="http://www.w3.org/2000/svg" width="234" height="8" viewBox="0 0 234 8">
  <g fill="#D8D8D8" fill-rule="evenodd">
    <rect width="1" height="10" x="4" y="-1" transform="rotate(45 4.5 4)"/>
    <rect width="1" height="10" x="104" y="-1" transform="rotate(45 104.5 4)"/>
    <rect width="1" height="10" x="54" y="-1" transform="rotate(45 54.5 4)"/>
    <rect width="1" height="10" x="154" y="-1" transform="rotate(45 154.5 4)"/>
    <rect width="1" height="10" x="29" y="-1" transform="rotate(45 29.5 4)"/>
    <rect width="1" height="10" x="129" y="-1" transform="rotate(45 129.5 4)"/>
    <rect width="1" height="10" x="79" y="-1" transform="rotate(45 79.5 4)"/>
    <rect width="1" height="10" x="179" y="-1" transform="rotate(45 179.5 4)"/>
    <rect width="1" height="10" x="209" y="-1" transform="rotate(45 209.5 4)"/>
    <rect width="1" height="10" x="9" y="-1" transform="rotate(45 9.5 4)"/>
    <rect width="1" height="10" x="109" y="-1" transform="rotate(45 109.5 4)"/>
    <rect width="1" height="10" x="59" y="-1" transform="rotate(45 59.5 4)"/>
    <rect width="1" height="10" x="159" y="-1" transform="rotate(45 159.5 4)"/>
    <rect width="1" height="10" x="34" y="-1" transform="rotate(45 34.5 4)"/>
    <rect width="1" height="10" x="134" y="-1" transform="rotate(45 134.5 4)"/>
    <rect width="1" height="10" x="84" y="-1" transform="rotate(45 84.5 4)"/>
    <rect width="1" height="10" x="184" y="-1" transform="rotate(45 184.5 4)"/>
    <rect width="1" height="10" x="214" y="-1" transform="rotate(45 214.5 4)"/>
    <rect width="1" height="10" x="14" y="-1" transform="rotate(45 14.5 4)"/>
    <rect width="1" height="10" x="114" y="-1" transform="rotate(45 114.5 4)"/>
    <rect width="1" height="10" x="64" y="-1" transform="rotate(45 64.5 4)"/>
    <rect width="1" height="10" x="164" y="-1" transform="rotate(45 164.5 4)"/>
    <rect width="1" height="10" x="39" y="-1" transform="rotate(45 39.5 4)"/>
    <rect width="1" height="10" x="139" y="-1" transform="rotate(45 139.5 4)"/>
    <rect width="1" height="10" x="89" y="-1" transform="rotate(45 89.5 4)"/>
    <rect width="1" height="10" x="189" y="-1" transform="rotate(45 189.5 4)"/>
    <rect width="1" height="10" x="219" y="-1" transform="rotate(45 219.5 4)"/>
    <rect width="1" height="10" x="19" y="-1" transform="rotate(45 19.5 4)"/>
    <rect width="1" height="10" x="119" y="-1" transform="rotate(45 119.5 4)"/>
    <rect width="1" height="10" x="69" y="-1" transform="rotate(45 69.5 4)"/>
    <rect width="1" height="10" x="169" y="-1" transform="rotate(45 169.5 4)"/>
    <rect width="1" height="10" x="44" y="-1" transform="rotate(45 44.5 4)"/>
    <rect width="1" height="10" x="144" y="-1" transform="rotate(45 144.5 4)"/>
    <rect width="1" height="10" x="94" y="-1" transform="rotate(45 94.5 4)"/>
    <rect width="1" height="10" x="194" y="-1" transform="rotate(45 194.5 4)"/>
    <rect width="1" height="10" x="224" y="-1" transform="rotate(45 224.5 4)"/>
    <rect width="1" height="10" x="24" y="-1" transform="rotate(45 24.5 4)"/>
    <rect width="1" height="10" x="124" y="-1" transform="rotate(45 124.5 4)"/>
    <rect width="1" height="10" x="74" y="-1" transform="rotate(45 74.5 4)"/>
    <rect width="1" height="10" x="174" y="-1" transform="rotate(45 174.5 4)"/>
    <rect width="1" height="10" x="204" y="-1" transform="rotate(45 204.5 4)"/>
    <rect width="1" height="10" x="49" y="-1" transform="rotate(45 49.5 4)"/>
    <rect width="1" height="10" x="149" y="-1" transform="rotate(45 149.5 4)"/>
    <rect width="1" height="10" x="99" y="-1" transform="rotate(45 99.5 4)"/>
    <rect width="1" height="10" x="199" y="-1" transform="rotate(45 199.5 4)"/>
    <rect width="1" height="10" x="229" y="-1" transform="rotate(45 229.5 4)"/>
  </g>
</svg>
