<svg xmlns="http://www.w3.org/2000/svg" width="100" height="100" viewBox="0 0 100 100">
  <g fill="none" fill-rule="evenodd">
    <rect width="100" height="100" fill="#EDEDED" rx="8"/>
    <g transform="translate(22 23)">
      <polyline fill="#565759" points="35.008 47.425 60.831 70.738 71.553 58.863 45.731 35.549"/>
      <path fill="#F4A81C" d="M25.8369,43.959 C15.6399,43.959 7.3219,35.642 7.3219,25.445 C7.3219,15.248 15.6399,6.93 25.8369,6.93 C36.0339,6.93 44.3509,15.248 44.3509,25.445 C44.3509,35.642 36.0339,43.959 25.8369,43.959 M25.8369,0.551 C12.1259,0.551 0.9429,11.734 0.9429,25.445 C0.9429,39.156 12.1259,50.338 25.8369,50.338 C39.5479,50.338 50.7299,39.156 50.7299,25.445 C50.7299,11.734 39.5479,0.551 25.8369,0.551"/>
      <path fill="#F4A81C" d="M25.8369,43.959 L25.8369,43.459 C20.8759,43.459 16.3749,41.437 13.1089,38.173 C9.8439,34.907 7.8219,30.406 7.8219,25.445 C7.8219,20.484 9.8439,15.982 13.1089,12.717 C16.3749,9.452 20.8759,7.43 25.8369,7.43 C30.7979,7.43 35.2989,9.452 38.5639,12.717 C41.8289,15.982 43.8509,20.484 43.8509,25.445 C43.8509,30.406 41.8289,34.907 38.5639,38.173 C35.2989,41.437 30.7979,43.459 25.8369,43.459 L25.8369,44.459 C36.3119,44.458 44.8499,35.92 44.8509,25.445 C44.8499,14.97 36.3119,6.432 25.8369,6.43 C15.3619,6.432 6.8239,14.97 6.8219,25.445 C6.8239,35.92 15.3619,44.458 25.8369,44.459 L25.8369,43.959 Z M25.8369,0.551 L25.8369,0.051 C11.8479,0.053 0.4449,11.456 0.4429,25.445 C0.4449,39.433 11.8479,50.837 25.8369,50.838 C39.8249,50.837 51.2289,39.433 51.2299,25.445 C51.2289,11.456 39.8249,0.053 25.8369,0.051 L25.8369,1.051 C32.5549,1.051 38.6509,3.79 43.0719,8.21 C47.4919,12.631 50.2299,18.727 50.2299,25.445 C50.2299,32.163 47.4919,38.259 43.0719,42.68 C38.6509,47.1 32.5549,49.838 25.8369,49.838 C19.1189,49.838 13.0229,47.1 8.6019,42.68 C4.1819,38.259 1.4429,32.163 1.4429,25.445 C1.4429,18.727 4.1819,12.631 8.6019,8.21 C13.0229,3.79 19.1189,1.051 25.8369,1.051 L25.8369,0.551 Z"/>
      <path fill="#231F20" d="M25.8369,4.4668 C37.3909,4.4668 46.8149,13.8908 46.8149,25.4448 C46.8149,36.9998 37.3909,46.4228 25.8369,46.4228 C14.2829,46.4228 4.8579,36.9998 4.8579,25.4448 C4.8579,13.8908 14.2829,4.4668 25.8369,4.4668"/>
      <path fill="#FEFEFE" d="M7.8701,33.7109 C7.8701,33.7109 11.9751,3.6949 42.5521,14.7559 C42.5521,14.7559 35.8441,42.3289 7.8701,33.7109"/>
      <path fill="#010202" d="M19.1909,18.1621 C17.3229,19.8831 16.4799,22.2991 16.6889,24.6481 C16.8669,23.7401 17.3209,22.8771 18.0529,22.2021 C19.8849,20.5141 22.7389,20.6301 24.4269,22.4611 C26.1159,24.2921 25.9999,27.1441 24.1679,28.8331 C22.6979,30.1891 20.5699,30.3781 18.9129,29.4541 C21.8769,32.4721 26.7219,32.6131 29.8539,29.7251 C33.0489,26.7821 33.2509,21.8071 30.3069,18.6141 C27.3619,15.4201 22.3849,15.2181 19.1909,18.1621"/>
    </g>
    <path fill="#EDEDED" d="M89.478,81.835 C89.478,86.513 85.65,90.341 80.972,90.341 L18.164,90.341 C13.486,90.341 9.659,86.513 9.659,81.835 L9.659,19.028 C9.659,14.35 13.486,10.522 18.164,10.522 L80.972,10.522 C85.65,10.522 89.478,14.35 89.478,19.028 L89.478,81.835 Z M12.506,4.864 C7.828,4.864 4,8.691 4,13.37 L4,87.494 C4,92.172 7.828,96 12.506,96 L86.63,96 C91.309,96 95.137,92.172 95.137,87.494 L95.137,13.37 C95.137,8.691 91.309,4.864 86.63,4.864 L12.506,4.864 Z"/>
  </g>
</svg>
