<svg xmlns="http://www.w3.org/2000/svg" width="100" height="100" viewBox="0 0 100 100">
  <g fill="none" fill-rule="evenodd">
    <rect width="100" height="100" fill="#EDEDED" rx="8"/>
    <path fill="#EDEDED" d="M89.479,80.971 C89.479,85.649 85.65,89.477 80.972,89.477 L18.165,89.477 C13.487,89.477 9.659,85.649 9.659,80.971 L9.659,18.164 C9.659,13.486 13.487,9.658 18.165,9.658 L80.972,9.658 C85.65,9.658 89.479,13.486 89.479,18.164 L89.479,80.971 Z M86.631,4 L12.506,4 C7.828,4 4,7.827 4,12.506 L4,86.63 C4,91.308 7.828,95.136 12.506,95.136 L86.631,95.136 C91.309,95.136 95.137,91.308 95.137,86.63 L95.137,12.506 C95.137,7.827 91.309,4 86.631,4 Z"/>
    <g transform="translate(4 4)">
      <path fill="#565759" d="M35.1969,64.5686 L26.9479,72.7486 C25.2439,74.4366 22.3419,75.0176 20.0719,73.7836 C19.4399,73.4376 18.8639,72.9856 18.3629,72.4406 L18.0639,72.1136 C16.9339,70.8826 16.2939,69.2966 16.2619,67.6446 C16.2309,65.9946 17.0449,64.2146 18.1319,63.1386 L28.4679,52.8886 C30.1729,51.2016 32.8429,50.8946 35.1099,52.1306 C35.7429,52.4746 36.3179,52.9266 36.8199,53.4736 L37.1179,53.7986 C37.2029,53.8906 37.2779,53.9886 37.3569,54.0856 C38.4619,55.1706 39.4719,55.7076 40.4819,55.7396 C41.7269,55.7806 43.1069,55.0486 44.6629,53.5136 C44.0129,51.9356 43.0789,50.4336 41.8569,49.1016 L41.5579,48.7756 C40.4709,47.5926 39.2229,46.6116 37.8459,45.8616 C32.9659,43.2036 27.2159,43.8686 23.5359,47.5146 L13.1989,57.7636 C10.8479,60.0956 9.5909,63.3376 9.6579,66.8886 C9.7269,70.4416 11.1119,73.8686 13.5589,76.5346 L13.8579,76.8606 C14.9449,78.0456 16.1939,79.0246 17.5699,79.7746 C22.4509,82.4316 28.2009,81.7676 31.8799,78.1226 L42.2179,67.8736 C42.8399,67.2566 43.3769,66.5826 43.8349,65.8616 C40.4109,66.4946 37.3989,65.6336 35.1969,64.5686"/>
      <path fill="#F4A81C" d="M58.3902,52.1272 L59.8132,50.7122 C59.9942,50.5302 60.1662,50.3432 60.3342,50.1502 C60.5562,49.9082 60.7442,49.6762 60.9242,49.4262 C62.5492,47.2482 63.3992,44.5212 63.3362,41.5812 C63.3022,39.9072 62.7312,37.6372 62.3712,36.7152 C62.0132,35.7922 61.1792,33.7192 59.4982,31.8762 L59.2002,31.5502 C58.1132,30.3652 56.8642,29.3852 55.4882,28.6362 C50.6072,25.9772 44.8572,26.6412 41.1792,30.2892 L30.7452,40.8022 C30.1052,41.4382 29.5522,42.1392 29.0842,42.8862 C32.5722,42.2362 35.6772,43.1832 37.7302,44.1422 L46.0362,35.7552 C46.2002,35.5932 46.3762,35.4442 46.5602,35.3022 C48.3292,34.1442 50.8682,34.0642 52.8822,35.0112 C53.9112,35.4962 55.2032,36.8022 55.9022,37.8912 C56.4762,38.7742 56.7102,39.8492 56.7322,40.8382 C56.7672,42.4882 55.9542,44.2682 54.8702,45.3462 L44.4942,55.7852 C42.7902,57.4742 40.1212,57.7782 37.8542,56.5442 C37.4152,56.3052 37.0092,56.0122 36.6312,55.6762 L36.6252,55.6802 L36.6042,55.6512 C36.4452,55.5102 36.2892,55.3592 36.1442,55.2012 L35.8452,54.8752 C35.6542,54.6672 35.4832,54.4462 35.3222,54.2222 C34.4892,53.4382 33.7232,53.0332 32.9422,52.9632 C31.6782,52.8492 30.1662,53.6202 28.3582,55.3012 C29.0042,56.8272 29.9202,58.2782 31.1072,59.5712 L31.4062,59.8982 C32.4922,61.0832 33.7412,62.0632 35.1172,62.8122 C39.9972,65.4702 45.7482,64.8062 49.4272,61.1592 L58.3902,52.1272"/>
      <path fill="#F4A81C" d="M58.3902,52.1272 L58.7422,52.4812 L60.1642,51.0652 C60.3582,50.8752 60.5372,50.6782 60.7102,50.4812 L60.3342,50.1502 L60.7042,50.4862 C60.9372,50.2312 61.1402,49.9822 61.3302,49.7162 L60.9242,49.4262 L61.3252,49.7252 C62.9632,47.5292 63.8412,44.8052 63.8402,41.8792 C63.8402,41.7762 63.8392,41.6732 63.8362,41.5712 L63.8352,41.5292 L63.8362,41.5702 C63.7932,39.7952 63.2212,37.5332 62.8382,36.5342 L62.8382,36.5332 C62.4722,35.5962 61.6172,33.4582 59.8692,31.5392 L59.8602,31.5302 L59.5692,31.2122 L59.5402,31.1812 L59.5692,31.2122 C58.4462,29.9882 57.1532,28.9722 55.7272,28.1962 C53.6612,27.0712 51.4402,26.5182 49.2712,26.5182 C46.1322,26.5172 43.0992,27.6792 40.8272,29.9342 L30.3912,40.4502 L30.3942,40.4472 C29.7242,41.1112 29.1472,41.8432 28.6612,42.6202 L28.0572,43.5852 L29.1772,43.3772 C29.9452,43.2342 30.6942,43.1712 31.4162,43.1712 C33.8442,43.1712 35.9822,43.8782 37.5182,44.5952 L37.8362,44.7442 L46.3922,36.1062 L46.3902,36.1092 C46.5332,35.9672 46.6942,35.8312 46.8662,35.6982 L46.5602,35.3022 L46.8322,35.7212 C47.7012,35.1522 48.7982,34.8612 49.9232,34.8612 C50.8652,34.8612 51.8222,35.0652 52.6682,35.4642 C53.5502,35.8652 54.8442,37.1502 55.4822,38.1612 L55.4842,38.1662 L55.4832,38.1642 C55.9902,38.9412 56.2142,39.9302 56.2332,40.8492 L56.2342,40.9392 C56.2412,42.3962 55.4842,44.0422 54.5192,44.9922 L44.1412,55.4322 L44.1432,55.4302 C43.2352,56.3302 42.0242,56.7962 40.7472,56.7972 C39.8642,56.7972 38.9502,56.5702 38.0932,56.1052 C37.6922,55.8862 37.3162,55.6162 36.9642,55.3022 L36.6112,54.9872 L36.2722,55.3272 L36.6252,55.6802 L37.0182,55.3702 L36.9942,55.3412 L36.9692,55.3092 L36.9382,55.2802 C36.7872,55.1452 36.6442,55.0072 36.5122,54.8612 L36.2132,54.5372 C36.0402,54.3492 35.8822,54.1452 35.7292,53.9312 L35.7002,53.8922 L35.6642,53.8572 C34.7872,53.0302 33.9152,52.5482 32.9872,52.4652 C32.8912,52.4562 32.7932,52.4522 32.6962,52.4522 C31.2612,52.4622 29.7522,53.3302 28.0182,54.9342 L27.7612,55.1732 L27.8982,55.4962 C28.5662,57.0722 29.5132,58.5742 30.7392,59.9102 L31.0372,60.2352 C32.1602,61.4602 33.4532,62.4762 34.8772,63.2512 C36.9442,64.3772 39.1652,64.9302 41.3342,64.9302 C44.4742,64.9312 47.5062,63.7682 49.7792,61.5142 L58.7442,52.4792 L58.7422,52.4812 L58.3902,52.1272 L58.0352,51.7742 L49.0722,60.8072 L49.0752,60.8042 C46.9962,62.8632 44.2292,63.9292 41.3342,63.9302 C39.3352,63.9302 37.2792,63.4202 35.3562,62.3732 C34.0302,61.6502 32.8252,60.7052 31.7752,59.5602 L31.4762,59.2332 C30.3282,57.9832 29.4442,56.5812 28.8192,55.1052 L28.3582,55.3012 L28.6992,55.6672 C30.3492,54.1252 31.7042,53.4402 32.6962,53.4522 L32.8982,53.4612 C33.5292,53.5182 34.1912,53.8452 34.9802,54.5862 L35.3222,54.2222 L34.9152,54.5142 C35.0842,54.7492 35.2682,54.9842 35.4762,55.2122 L35.7752,55.5392 L35.7762,55.5402 C35.9362,55.7132 36.1022,55.8742 36.2692,56.0232 L36.6042,55.6512 L36.2112,55.9632 L36.2342,55.9912 L36.5822,56.4312 L36.9842,56.0282 L36.6312,55.6762 L36.2982,56.0492 C36.7022,56.4092 37.1402,56.7242 37.6142,56.9822 C38.6152,57.5272 39.6942,57.7972 40.7472,57.7972 C42.2682,57.7982 43.7432,57.2342 44.8472,56.1402 L44.8502,56.1372 L55.2262,45.6992 L55.2242,45.7012 C56.3822,44.5392 57.2262,42.7242 57.2332,40.9392 L57.2322,40.8282 L57.2322,40.8272 C57.2072,39.7692 56.9602,38.6072 56.3222,37.6192 L56.3232,37.6212 C55.5642,36.4552 54.2722,35.1262 53.0952,34.5592 C52.1052,34.0942 51.0082,33.8612 49.9232,33.8612 C48.6292,33.8622 47.3452,34.1922 46.2862,34.8842 L46.2692,34.8952 L46.2522,34.9072 C46.0602,35.0572 45.8682,35.2182 45.6852,35.4002 L37.3732,43.7902 L37.7302,44.1422 L37.9412,43.6892 C36.3132,42.9292 34.0392,42.1722 31.4162,42.1722 C30.6372,42.1712 29.8262,42.2392 28.9932,42.3942 L29.0842,42.8862 L29.5092,43.1512 C29.9552,42.4362 30.4852,41.7652 31.0982,41.1582 L41.5342,30.6412 L41.5312,30.6442 C43.6092,28.5842 46.3752,27.5192 49.2712,27.5182 C51.2702,27.5182 53.3272,28.0282 55.2482,29.0752 C56.5762,29.7972 57.7812,30.7422 58.8312,31.8882 L59.1292,32.2132 C60.7412,33.9792 61.5532,35.9882 61.9062,36.8962 C62.2402,37.7422 62.8102,40.0182 62.8362,41.5912 C62.8392,41.6872 62.8402,41.7832 62.8402,41.8792 C62.8402,44.6062 62.0252,47.1122 60.5232,49.1272 L60.5202,49.1302 L60.5172,49.1352 C60.3502,49.3682 60.1752,49.5842 59.9652,49.8142 L59.9612,49.8172 L59.9582,49.8202 C59.7952,50.0072 59.6312,50.1872 59.4592,50.3562 L58.0362,51.7722 L58.0352,51.7742 L58.3902,52.1272"/>
      <path fill="#565759" d="M55.8775,26.7859 L64.1265,18.6069 C65.8305,16.9179 68.7335,16.3359 71.0025,17.5719 C71.6365,17.9159 72.2105,18.3679 72.7115,18.9139 L73.0125,19.2399 C74.1425,20.4719 74.7805,22.0589 74.8145,23.7099 C74.8455,25.3599 74.0295,27.1389 72.9435,28.2149 L62.6065,38.4649 C60.9025,40.1539 58.2325,40.4589 55.9655,39.2229 C55.3315,38.8789 54.7575,38.4269 54.2545,37.8799 L53.9565,37.5539 C53.8715,37.4629 53.7975,37.3649 53.7195,37.2699 C52.6125,36.1849 51.6045,35.6469 50.5945,35.6139 C49.3495,35.5729 47.9695,36.3059 46.4115,37.8409 C47.0635,39.4189 47.9955,40.9209 49.2195,42.2529 L49.5185,42.5779 C50.6055,43.7619 51.8535,44.7429 53.2305,45.4919 C58.1095,48.1499 63.8595,47.4859 67.5385,43.8389 L77.8755,33.5899 C80.2285,31.2589 81.4845,28.0169 81.4165,24.4649 C81.3495,20.9119 79.9635,17.4869 77.5175,14.8199 L77.2175,14.4939 C76.1295,13.3089 74.8815,12.3289 73.5045,11.5799 C68.6235,8.9219 62.8735,9.5859 59.1945,13.2329 L48.8565,23.4819 C48.2355,24.0979 47.6975,24.7729 47.2395,25.4929 C50.6635,24.8599 53.6765,25.7209 55.8775,26.7859"/>
    </g>
  </g>
</svg>
