<svg xmlns="http://www.w3.org/2000/svg" width="100" height="100" viewBox="0 0 100 100">
  <g fill="none" fill-rule="evenodd">
    <rect width="100" height="100" fill="#EDEDED" rx="8"/>
    <path fill="#EDEDED" d="M89.479,80.971 C89.479,85.649 85.65,89.477 80.972,89.477 L18.165,89.477 C13.487,89.477 9.659,85.649 9.659,80.971 L9.659,18.164 C9.659,13.486 13.487,9.658 18.165,9.658 L80.972,9.658 C85.65,9.658 89.479,13.486 89.479,18.164 L89.479,80.971 Z M86.631,4 L12.506,4 C7.828,4 4,7.827 4,12.506 L4,86.63 C4,91.308 7.828,95.136 12.506,95.136 L86.631,95.136 C91.309,95.136 95.137,91.308 95.137,86.63 L95.137,12.506 C95.137,7.827 91.309,4 86.631,4 Z"/>
    <g transform="translate(13 17)">
      <path fill="#565759" d="M61.5333,53.137 L23.2043,53.137 C16.8943,53.137 11.7783,48.022 11.7783,41.712 L11.7783,12.081 C11.7783,5.77 16.8943,0.655 23.2043,0.655 L61.5333,0.655 C67.8433,0.655 72.9593,5.77 72.9593,12.081 L72.9593,41.712 C72.9593,48.022 67.8433,53.137 61.5333,53.137"/>
      <path fill="#F4A81C" d="M.9361 73.8635L21.6911 73.8635 22.8481 55.1545 34.2911 55.3505C35.5961 55.3505 36.8091 55.2365 37.8451 54.8085 41.4341 53.3245 52.6141 48.8135 52.6141 48.8135 52.6141 48.8115 55.1151 47.2055 53.4781 43.8525 52.5001 41.8475 51.0661 41.4635 50.1101 41.4635L33.9811 44.3995C33.9811 44.3995 17.8351 42.5895 11.9581 42.2445.3931 41.5645.9361 53.0205.9361 53.0205L.9361 73.8635M3.897 29.824C3.897 35.639 8.615 40.357 14.43 40.357 20.249 40.357 24.965 35.639 24.965 29.824 24.965 24.006 20.249 19.291 14.43 19.291 8.615 19.291 3.897 24.006 3.897 29.824"/>
      <polyline fill="#F4A81C" points="51.19 45.981 66.942 31.073 64.879 28.894 49.127 43.802"/>
    </g>
  </g>
</svg>
