<svg xmlns="http://www.w3.org/2000/svg" width="100" height="100" viewBox="0 0 100 100">
  <g fill="none" fill-rule="evenodd">
    <rect width="100" height="100" fill="#EDEDED" rx="8"/>
    <g transform="translate(9 19)">
      <path fill="#585A5B" d="M40.3906,15.52 C37.4856,15.52 35.1196,12.435 35.1196,9.529 L35.1226,9.385 L45.6596,9.385 L45.6616,9.529 C45.6616,12.435 43.2966,15.52 40.3906,15.52"/>
      <path fill="#FBB415" d="M34.6816,8.4199 L46.0986,8.4199 C46.5436,8.4199 46.9056,8.0599 46.9056,7.6149 C46.9056,7.1699 46.5436,6.8099 46.0986,6.8099 L45.8796,6.8099 C45.8796,4.6699 44.6556,2.8179 42.8696,1.9129 L42.4136,4.4919 C42.3776,4.6959 42.2016,4.8389 41.9996,4.8389 L41.9266,4.8329 C41.6986,4.7919 41.5446,4.5749 41.5856,4.3449 L42.1056,1.3989 C41.9106,1.0869 41.5646,0.8789 41.1686,0.8789 L39.6126,0.8789 C39.2156,0.8789 38.8716,1.0869 38.6756,1.3989 L39.1966,4.3449 C39.2366,4.5749 39.0826,4.7919 38.8536,4.8329 L38.7816,4.8389 C38.5806,4.8389 38.4036,4.6959 38.3686,4.4919 L37.9126,1.9129 C36.1256,2.8179 34.9026,4.6699 34.9026,6.8099 L34.6816,6.8099 C34.2386,6.8099 33.8766,7.1699 33.8766,7.6149 C33.8766,8.0599 34.2386,8.4199 34.6816,8.4199"/>
      <path fill="#6E6D6F" d="M16.4541,20.8188 C13.8721,20.8188 11.7731,18.0778 11.7711,15.4968 L11.7751,15.3708 L21.1311,15.3708 L21.1341,15.4968 C21.1341,18.0778 19.0341,20.8188 16.4541,20.8188"/>
      <path fill="#FBB415" d="M11.3828,14.5142 L21.5238,14.5142 C21.9178,14.5142 22.2388,14.1942 22.2388,13.7982 C22.2388,13.4042 21.9178,13.0832 21.5238,13.0832 L21.3288,13.0832 C21.3288,11.1832 20.2408,9.5382 18.6548,8.7342 L18.2498,11.0252 C18.2178,11.2062 18.0598,11.3332 17.8818,11.3332 L17.8188,11.3282 C17.6138,11.2912 17.4788,11.0982 17.5148,10.8952 L17.9758,8.2782 C17.8028,8.0012 17.4958,7.8172 17.1448,7.8172 L15.7618,7.8172 C15.4108,7.8172 15.1038,8.0012 14.9298,8.2782 L15.3918,10.8952 C15.4278,11.0982 15.2918,11.2912 15.0878,11.3282 L15.0248,11.3332 C14.8458,11.3332 14.6878,11.2062 14.6558,11.0252 L14.2518,8.7352 C12.6658,9.5382 11.5788,11.1832 11.5788,13.0832 L11.3828,13.0832 C10.9888,13.0832 10.6678,13.4042 10.6678,13.7982 C10.6678,14.1942 10.9888,14.5142 11.3828,14.5142"/>
      <path fill="#6E6D6F" d="M63.4854,20.8188 C60.9044,20.8188 58.8034,18.0778 58.8024,15.4968 L58.8054,15.3708 L68.1634,15.3708 L68.1654,15.4968 C68.1654,18.0778 66.0664,20.8188 63.4854,20.8188"/>
      <path fill="#FBB415" d="M58.4141,14.5142 L68.5541,14.5142 C68.9501,14.5142 69.2691,14.1942 69.2691,13.7982 C69.2691,13.4042 68.9501,13.0832 68.5541,13.0832 L68.3601,13.0832 C68.3601,11.1832 67.2711,9.5382 65.6851,8.7342 L65.2821,11.0252 C65.2491,11.2062 65.0911,11.3332 64.9141,11.3332 L64.8481,11.3282 C64.6441,11.2912 64.5091,11.0982 64.5451,10.8952 L65.0061,8.2782 C64.8341,8.0012 64.5271,7.8172 64.1761,7.8172 L62.7921,7.8172 C62.4421,7.8172 62.1351,8.0012 61.9611,8.2782 L62.4231,10.8952 C62.4581,11.0982 62.3241,11.2912 62.1201,11.3282 L62.0551,11.3332 C61.8761,11.3332 61.7191,11.2062 61.6871,11.0252 L61.2841,8.7352 C59.6981,9.5382 58.6101,11.1832 58.6101,13.0832 L58.4141,13.0832 C58.0191,13.0832 57.7001,13.4042 57.7001,13.7982 C57.7001,14.1942 58.0191,14.5142 58.4141,14.5142"/>
      <path fill="#902A2B" d="M24.3203 22.2129L9.1623 22.2129C7.6743 22.2129 6.4843 23.4769 6.4843 25.0249L6.4843 40.4279C6.4843 41.6499 7.3573 42.6429 8.4273 42.6429 9.5023 42.6429 10.3863 41.6499 10.3863 40.4279L10.3863 39.3389 10.9993 39.3389 10.9993 62.0349C10.9993 63.3819 12.0483 64.4899 13.3433 64.4899L14.0093 64.4899C15.2883 64.4899 16.3443 63.3819 16.3443 62.0349L16.3443 48.4969 17.1283 48.4969 17.1283 62.0349C17.1283 63.3819 18.1783 64.4899 19.4783 64.4899L20.1373 64.4899C21.4223 64.4899 22.4733 63.3819 22.4733 62.0349L22.4733 39.3389 23.0943 39.3389 23.0943 40.4279C23.0943 41.6499 23.9653 42.6429 25.0453 42.6429 26.1173 42.6429 27.0013 41.6499 27.0013 40.4279L27.0013 25.0249C27.0013 23.4769 25.7963 22.2129 24.3203 22.2129M49.7803 17.1411L31.3593 17.1411C29.5503 17.1411 28.1033 18.6761 28.1033 20.5571L28.1033 39.2781C28.1033 40.7611 29.1643 41.9701 30.4673 41.9701 31.7543 41.9701 32.8123 40.7931 32.8423 39.3391L33.5923 39.3391 33.5923 66.1491C33.5923 67.7871 34.8663 69.1321 36.4413 69.1321L37.2503 69.1321C38.8033 69.1321 40.0893 67.7871 40.0893 66.1491L40.0893 49.0851 41.0403 49.0851 41.0403 66.1491C41.0403 67.7871 42.3183 69.1321 43.8963 69.1321L44.6993 69.1321C46.2593 69.1321 47.5373 67.7871 47.5373 66.1491L47.5373 39.3391 48.2973 39.3391C48.3273 40.7931 49.3683 41.9701 50.6613 41.9701 51.9643 41.9701 53.0403 40.7611 53.0403 39.2781L53.0403 20.5571C53.0403 18.6761 51.5753 17.1411 49.7803 17.1411M71.7539 22.2129L56.5969 22.2129C55.1099 22.2129 53.9179 23.4769 53.9179 25.0249L53.9179 40.4279C53.9179 41.6499 54.7909 42.6429 55.8639 42.6429 56.9379 42.6429 57.8229 41.6499 57.8229 40.4279L57.8229 39.3389 58.4349 39.3389 58.4349 62.0349C58.4349 63.3819 59.4829 64.4899 60.7789 64.4899L61.4449 64.4899C62.7229 64.4899 63.7809 63.3819 63.7809 62.0349L63.7809 48.4969 64.5629 48.4969 64.5629 62.0349C64.5629 63.3819 65.6149 64.4899 66.9129 64.4899L67.5739 64.4899C68.8579 64.4899 69.9099 63.3819 69.9099 62.0349L69.9099 39.3389 70.5299 39.3389 70.5299 40.4279C70.5299 41.6499 71.3999 42.6429 72.4809 42.6429 73.5519 42.6429 74.4359 41.6499 74.4359 40.4279L74.4359 25.0249C74.4359 23.4769 73.2329 22.2129 71.7539 22.2129"/>
      <polygon fill="#FEFEFE" points="81.151 71.668 .703 71.668 .703 59.854 .931 59.854 .931 71.546 81.067 71.546 81.067 59.854 81.151 59.854"/>
      <path fill="#6A6A6B" d="M81.0674,71.5459 L0.9314,71.5459 L0.9314,59.8539 L10.9994,59.8539 L10.9994,62.0349 C10.9994,63.3819 12.0474,64.4899 13.3434,64.4899 L14.0094,64.4899 C15.2884,64.4899 16.3444,63.3819 16.3444,62.0349 L16.3444,59.8539 L17.1284,59.8539 L17.1284,62.0349 C17.1284,63.3819 18.1784,64.4899 19.4784,64.4899 L20.1374,64.4899 C21.4214,64.4899 22.4734,63.3819 22.4734,62.0349 L22.4734,59.8539 L33.5914,59.8539 L33.5914,66.1499 C33.5914,67.7869 34.8664,69.1319 36.4414,69.1319 L37.2504,69.1319 C38.8034,69.1319 40.0884,67.7869 40.0884,66.1499 L40.0884,59.8539 L41.0404,59.8539 L41.0404,66.1499 C41.0404,67.7869 42.3184,69.1319 43.8964,69.1319 L44.6994,69.1319 C46.2584,69.1319 47.5374,67.7869 47.5374,66.1499 L47.5374,59.8539 L58.4344,59.8539 L58.4344,62.0349 C58.4344,63.3819 59.4834,64.4899 60.7794,64.4899 L61.4454,64.4899 C62.7224,64.4899 63.7814,63.3819 63.7814,62.0349 L63.7814,59.8539 L64.5624,59.8539 L64.5624,62.0349 C64.5624,63.3819 65.6154,64.4899 66.9134,64.4899 L67.5744,64.4899 C68.8584,64.4899 69.9104,63.3819 69.9104,62.0349 L69.9104,59.8539 L81.0674,59.8539 L81.0674,71.5459"/>
    </g>
    <path fill="#EDEDED" d="M89.479,80.971 C89.479,85.649 85.65,89.477 80.972,89.477 L18.165,89.477 C13.487,89.477 9.659,85.649 9.659,80.971 L9.659,18.164 C9.659,13.486 13.487,9.658 18.165,9.658 L80.972,9.658 C85.65,9.658 89.479,13.486 89.479,18.164 L89.479,80.971 Z M86.631,4 L12.506,4 C7.828,4 4,7.827 4,12.506 L4,86.63 C4,91.308 7.828,95.136 12.506,95.136 L86.631,95.136 C91.309,95.136 95.137,91.308 95.137,86.63 L95.137,12.506 C95.137,7.827 91.309,4 86.631,4 Z"/>
  </g>
</svg>
