<svg xmlns="http://www.w3.org/2000/svg" width="30" height="30" viewBox="0 0 30 30">
  <g fill="none" fill-rule="evenodd">
    <g fill="#FFF" fill-rule="nonzero" transform="translate(4)">
      <path d="M17.30333,8.00096115 C13.1283516,10.5254271 10.1191564,13.7136931 8.89737082,15.130598 L5.76030345,12.7064846 C5.67723323,12.647562 3.95515965,14.1556128 4.00089493,14.2025667 L9.71407239,19.9318707 C9.75607418,19.9788247 9.81394332,20 9.87647933,20 C9.88767981,20 9.9054139,20 9.92034787,19.9963173 C9.99501773,19.9797453 10.0584871,19.9300294 10.0864883,19.8563761 C11.0067943,17.5353774 14.0458575,12.6761027 17.9268233,9.15179355 C17.9958929,9.08734693 18.0201606,8.98607368 17.9818923,8.89861042 C17.980959,8.89768975 17.3611991,7.96597585 17.30333,8.00096115 Z"/>
      <path d="M21.5671578,3.63665047 C12.8840814,3.63665047 11.4150413,0.306682653 11.4019249,0.275446457 C11.3382165,0.112639616 11.1808194,0.00378620559 11.0028107,0 C11.0028107,0 10.9990631,0 10.9953156,0 C10.8229282,0 10.6636573,0.108853411 10.5943276,0.267874046 C10.5840218,0.302896447 9.0831275,3.63665047 0.432842177,3.63665047 C0.191125117,3.63665047 0,3.83447971 0,4.07301066 L0,18.9944469 C0,25.1025431 10.3844647,29.7690415 10.8238651,29.9649776 C10.8819521,29.9905345 10.9372285,30 11,30 C11.0571502,30 11.1189848,29.9905345 11.1742611,29.9649776 C11.6174091,29.7690415 22,25.1025431 22,18.9944469 L22,4.07301066 C21.9981262,3.83447971 21.8060642,3.63665047 21.5671578,3.63665047 Z M19.610936,18.1264593 C19.610936,22.9055973 11.4806235,26.5621253 11.1349118,26.7135735 C11.0927519,26.7353442 11.0430968,26.7429166 10.9990631,26.7429166 C10.9512818,26.7429166 10.9072481,26.7353442 10.8622775,26.7135735 C10.5203134,26.5621253 2.38719019,22.9055973 2.38719019,18.1264593 L2.38719019,6.44696157 C2.38719019,6.25859784 2.53802913,6.10336341 2.72634358,6.10336341 C9.4991057,6.10336341 10.6730261,3.49466776 10.6842688,3.46911087 C10.7376714,3.34321954 10.8613406,3.25802991 10.9971893,3.25802991 C10.9990631,3.25802991 11.0028107,3.25802991 11.0028107,3.25802991 C11.1414701,3.25992301 11.2642024,3.34511264 11.3138574,3.47479018 C11.3251001,3.49845397 12.4755983,6.10336341 19.2717826,6.10336341 C19.4600971,6.10336341 19.6099991,6.25859784 19.6099991,6.44696157 L19.610936,18.1264593 Z"/>
    </g>
    <g fill="#4A4A4A" fill-rule="nonzero" transform="translate(4)">
      <path d="M17.30333,8.00096115 C13.1283516,10.5254271 10.1191564,13.7136931 8.89737082,15.130598 L5.76030345,12.7064846 C5.67723323,12.647562 3.95515965,14.1556128 4.00089493,14.2025667 L9.71407239,19.9318707 C9.75607418,19.9788247 9.81394332,20 9.87647933,20 C9.88767981,20 9.9054139,20 9.92034787,19.9963173 C9.99501773,19.9797453 10.0584871,19.9300294 10.0864883,19.8563761 C11.0067943,17.5353774 14.0458575,12.6761027 17.9268233,9.15179355 C17.9958929,9.08734693 18.0201606,8.98607368 17.9818923,8.89861042 C17.980959,8.89768975 17.3611991,7.96597585 17.30333,8.00096115 Z"/>
      <path d="M21.5671578,3.63665047 C12.8840814,3.63665047 11.4150413,0.306682653 11.4019249,0.275446457 C11.3382165,0.112639616 11.1808194,0.00378620559 11.0028107,0 C11.0028107,0 10.9990631,0 10.9953156,0 C10.8229282,0 10.6636573,0.108853411 10.5943276,0.267874046 C10.5840218,0.302896447 9.0831275,3.63665047 0.432842177,3.63665047 C0.191125117,3.63665047 0,3.83447971 0,4.07301066 L0,18.9944469 C0,25.1025431 10.3844647,29.7690415 10.8238651,29.9649776 C10.8819521,29.9905345 10.9372285,30 11,30 C11.0571502,30 11.1189848,29.9905345 11.1742611,29.9649776 C11.6174091,29.7690415 22,25.1025431 22,18.9944469 L22,4.07301066 C21.9981262,3.83447971 21.8060642,3.63665047 21.5671578,3.63665047 Z M19.610936,18.1264593 C19.610936,22.9055973 11.4806235,26.5621253 11.1349118,26.7135735 C11.0927519,26.7353442 11.0430968,26.7429166 10.9990631,26.7429166 C10.9512818,26.7429166 10.9072481,26.7353442 10.8622775,26.7135735 C10.5203134,26.5621253 2.38719019,22.9055973 2.38719019,18.1264593 L2.38719019,6.44696157 C2.38719019,6.25859784 2.53802913,6.10336341 2.72634358,6.10336341 C9.4991057,6.10336341 10.6730261,3.49466776 10.6842688,3.46911087 C10.7376714,3.34321954 10.8613406,3.25802991 10.9971893,3.25802991 C10.9990631,3.25802991 11.0028107,3.25802991 11.0028107,3.25802991 C11.1414701,3.25992301 11.2642024,3.34511264 11.3138574,3.47479018 C11.3251001,3.49845397 12.4755983,6.10336341 19.2717826,6.10336341 C19.4600971,6.10336341 19.6099991,6.25859784 19.6099991,6.44696157 L19.610936,18.1264593 Z"/>
    </g>
  </g>
</svg>
