<svg xmlns="http://www.w3.org/2000/svg" xmlns:xlink="http://www.w3.org/1999/xlink" width="100" height="100" viewBox="0 0 100 100">
  <defs>
    <polygon id="supervisor-regular-a" points="0 91.136 91.137 91.136 91.137 0 0 0"/>
  </defs>
  <g fill="none" fill-rule="evenodd">
    <rect width="100" height="100" fill="#EDEDED" rx="8"/>
    <path fill="#EDEDED" d="M89.479,80.971 C89.479,85.649 85.65,89.477 80.972,89.477 L18.165,89.477 C13.487,89.477 9.659,85.649 9.659,80.971 L9.659,18.164 C9.659,13.486 13.487,9.658 18.165,9.658 L80.972,9.658 C85.65,9.658 89.479,13.486 89.479,18.164 L89.479,80.971 Z M86.631,4 L12.506,4 C7.828,4 4,7.827 4,12.506 L4,86.63 C4,91.308 7.828,95.136 12.506,95.136 L86.631,95.136 C91.309,95.136 95.137,91.308 95.137,86.63 L95.137,12.506 C95.137,7.827 91.309,4 86.631,4 Z"/>
    <g transform="translate(4 4)">
      <path fill="#902A2B" d="M36.314,46.553 C37.47,46.594 38.629,46.568 39.786,46.604 C41.794,46.667 43.226,47.705 44.272,49.347 C45.382,51.09 45.881,53.048 46.189,55.055 C46.59,57.671 46.603,60.306 46.469,62.945 C46.462,63.072 46.433,63.199 46.415,63.326 L8.854,63.326 C8.81,62.928 8.746,62.532 8.724,62.134 C8.542,58.849 8.548,55.578 9.443,52.374 C9.782,51.162 10.268,50.015 11.011,48.984 C12.167,47.381 13.747,46.596 15.698,46.549 C16.872,46.519 18.046,46.553 19.22,46.525"/>
      <path fill="#902A2B" d="M72.3218,46.553 C73.4788,46.594 74.6378,46.568 75.7938,46.604 C77.8028,46.667 79.2338,47.705 80.2808,49.347 C81.3908,51.09 81.8898,53.048 82.1968,55.055 C82.5988,57.671 82.6108,60.306 82.4778,62.945 C82.4708,63.072 82.4418,63.199 82.4228,63.326 L44.8618,63.326 C44.8178,62.928 44.7538,62.532 44.7318,62.134 C44.5498,58.849 44.5558,55.578 45.4518,52.374 C45.7908,51.162 46.2768,50.015 47.0198,48.984 C48.1748,47.381 49.7548,46.596 51.7068,46.549 C52.8798,46.519 54.0548,46.553 55.2288,46.525"/>
      <path fill="#F4A81C" d="M76.7559,85.4768 L14.3809,85.4768 C9.4979,85.4768 5.5379,81.5178 5.5379,76.6348 L5.5379,71.6418 C5.5379,66.7578 9.4979,62.7988 14.3809,62.7988 L76.7559,62.7988 C81.6399,62.7988 85.5989,66.7578 85.5989,71.6418 L85.5989,76.6348 C85.5989,81.5178 81.6399,85.4768 76.7559,85.4768"/>
      <path fill="#4A4A4A" d="M17.8702,33.7138 L17.8762,33.4508 L37.3172,33.4508 L37.3242,33.7138 C37.3242,39.0778 32.9612,44.7698 27.5972,44.7698 C22.2342,44.7698 17.8712,39.0778 17.8702,33.7138 Z"/>
      <path fill="#FBB415" d="M17.0621,31.6702 L38.1311,31.6702 C38.9521,31.6702 39.6181,31.0042 39.6181,30.1832 C39.6181,29.3622 38.9521,28.6972 38.1311,28.6972 L37.7281,28.6972 C37.7281,24.7492 35.4661,21.3312 32.1711,19.6592 L31.3311,24.4192 C31.2651,24.7972 30.9371,25.0612 30.5661,25.0612 L30.4321,25.0492 C30.0081,24.9742 29.7271,24.5722 29.8021,24.1492 L30.7601,18.7122 C30.4011,18.1362 29.7631,17.7532 29.0341,17.7532 L26.1601,17.7532 C25.4301,17.7532 24.7931,18.1362 24.4331,18.7122 L25.3921,24.1492 C25.4661,24.5722 25.1841,24.9742 24.7621,25.0492 L24.6261,25.0612 C24.2561,25.0612 23.9291,24.7972 23.8621,24.4192 L23.0231,19.6612 C19.7281,21.3312 17.4671,24.7492 17.4671,28.6972 L17.0621,28.6972 C16.2421,28.6972 15.5761,29.3622 15.5761,30.1832 C15.5761,31.0042 16.2421,31.6702 17.0621,31.6702"/>
      <path fill="#565759" d="M53.525,33.7138 L53.532,33.4508 L72.974,33.4508 L72.98,33.7138 C72.98,39.0778 68.617,44.7698 63.253,44.7698 C57.89,44.7698 53.527,39.0778 53.525,33.7138 Z"/>
      <path fill="#FBB415" d="M52.7178,31.6702 L73.7878,31.6702 C74.6078,31.6702 75.2738,31.0042 75.2738,30.1832 C75.2738,29.3622 74.6078,28.6972 73.7878,28.6972 L73.3828,28.6972 C73.3828,24.7492 71.1218,21.3312 67.8268,19.6592 L66.9868,24.4192 C66.9208,24.7972 66.5918,25.0612 66.2228,25.0612 L66.0868,25.0492 C65.6638,24.9742 65.3828,24.5722 65.4578,24.1492 L66.4158,18.7122 C66.0568,18.1362 65.4178,17.7532 64.6888,17.7532 L61.8158,17.7532 C61.0858,17.7532 60.4488,18.1362 60.0888,18.7122 L61.0478,24.1492 C61.1218,24.5722 60.8398,24.9742 60.4168,25.0492 L60.2818,25.0612 C59.9128,25.0612 59.5838,24.7972 59.5188,24.4192 L58.6788,19.6612 C55.3838,21.3312 53.1228,24.7492 53.1228,28.6972 L52.7178,28.6972 C51.8968,28.6972 51.2318,29.3622 51.2318,30.1832 C51.2318,31.0042 51.8968,31.6702 52.7178,31.6702"/>
    </g>
  </g>
</svg>
